<?xml version="1.0" encoding="UTF-8" standalone="no"?>
<!-- Generator: Adobe Illustrator 19.1.0, SVG Export Plug-In . SVG Version: 6.00 Build 0)  -->

<svg
   xmlns:dc="http://purl.org/dc/elements/1.1/"
   xmlns:cc="http://creativecommons.org/ns#"
   xmlns:rdf="http://www.w3.org/1999/02/22-rdf-syntax-ns#"
   xmlns:svg="http://www.w3.org/2000/svg"
   xmlns="http://www.w3.org/2000/svg"
   xmlns:xlink="http://www.w3.org/1999/xlink"
   xmlns:sodipodi="http://sodipodi.sourceforge.net/DTD/sodipodi-0.dtd"
   xmlns:inkscape="http://www.inkscape.org/namespaces/inkscape"
   version="1.1"
   id="Layer_1"
   x="0px"
   y="0px"
   viewBox="0 0 423.12 75.120003"
   xml:space="preserve"
   inkscape:version="0.91+devel+osxmenu r12850"
   sodipodi:docname="logo_gameasy.svg"
   width="423.12"
   height="75.120003"><metadata
     id="metadata4619"><rdf:RDF><cc:Work
         rdf:about=""><dc:format>image/svg+xml</dc:format><dc:type
           rdf:resource="http://purl.org/dc/dcmitype/StillImage" /><dc:title></dc:title></cc:Work></rdf:RDF></metadata><defs
     id="defs4617" /><sodipodi:namedview
     pagecolor="#ffffff"
     bordercolor="#666666"
     borderopacity="1"
     objecttolerance="10"
     gridtolerance="10"
     guidetolerance="10"
     inkscape:pageopacity="0"
     inkscape:pageshadow="2"
     inkscape:window-width="1869"
     inkscape:window-height="1035"
     id="namedview4615"
     showgrid="false"
     fit-margin-top="0"
     fit-margin-left="0"
     fit-margin-right="0"
     fit-margin-bottom="0"
     inkscape:zoom="1.0147059"
     inkscape:cx="79.696355"
     inkscape:cy="10.4723"
     inkscape:window-x="0"
     inkscape:window-y="23"
     inkscape:window-maximized="0"
     inkscape:current-layer="Layer_1" /><style
     type="text/css"
     id="style4577">
	.st0{fill-rule:evenodd;clip-rule:evenodd;fill:#F7F7FB;}
	.st1{fill:#F7F7FB;}
</style><g
     id="g4579"
     transform="translate(-194.5935,-241.3523)"><image
       sodipodi:absref="/Users/flavia.calzecchi/Downloads/62CAE056.png"
       xlink:href="62CAE056.png"
       id="image4581"
       transform="matrix(0.24,0,0,0.24,194.5935,241.3523)"
       height="313"
       width="1763"
       style="overflow:visible;opacity:0.15" /><g
       id="g4583"><g
         id="g4585"><g
           id="g4587"><path
             class="st0"
             d="m 460.6,278 0,-7 -65.6,0.1 0,34.9 42.6,0 0,-6.8 -35.5,0 0,-21.2 58.5,0 z m -23.4,-27.5 0,-6.9 -42.1,0 0,6.7 42.1,0.2 z"
             id="path4589"
             inkscape:connector-curvature="0"
             style="clip-rule:evenodd;fill:#f7f7fb;fill-rule:evenodd" /></g><g
           id="g4591"><path
             class="st0"
             d="m 481.1,271 -17,0 8.4,-19.3 8.6,19.3 z m -4.6,-27.3 -7.4,0 -28,62.3 7.6,0 12.3,-28 23.2,0 12.4,28 7.8,0 -27.9,-62.3 z"
             id="path4593"
             inkscape:connector-curvature="0"
             style="clip-rule:evenodd;fill:#f7f7fb;fill-rule:evenodd" /></g><g
           id="g4595"><path
             class="st1"
             d="m 510.6,268.3 c 1.7,2.2 3.8,4 6.5,5.3 2.6,1.3 5.4,2.3 8.4,3.2 3,0.8 5.8,1.7 8.5,2.7 2.6,0.9 4.8,2.2 6.4,3.8 1.7,1.5 2.5,3.6 2.5,6.4 0,3 -1.3,5.3 -3.9,7 -2.6,1.7 -6.1,2.6 -10.7,2.6 -3.6,0 -7.2,-0.8 -10.8,-2.3 -3.6,-1.5 -6.9,-3.7 -9.8,-6.5 l -3.3,6.5 c 0.9,0.8 1.9,1.6 2.9,2.4 2.3,1.7 5,3.2 7.9,4.4 4.1,1.7 8.5,2.6 13.1,2.7 4.5,0 8.4,-0.7 11.8,-2.1 3.4,-1.4 6,-3.4 7.9,-6 1.9,-2.5 2.8,-5.5 2.8,-9 0,-3.7 -0.9,-6.7 -2.5,-9 -1.7,-2.3 -3.8,-4 -6.5,-5.4 -2.6,-1.3 -5.4,-2.4 -8.4,-3.3 -3,-0.9 -5.8,-1.8 -8.4,-2.8 -2.7,-0.9 -4.8,-2.2 -6.5,-3.7 -1.7,-1.5 -2.5,-3.6 -2.6,-6.3 0.1,-2.6 1.3,-4.7 3.6,-6.1 2.4,-1.4 5.6,-2.1 9.7,-2.1 2.6,0 5.3,0.4 8.3,1.2 3,0.8 5.9,2.2 8.8,4.1 l 3,-6.7 c -2.6,-1.8 -5.6,-3.1 -9,-4.1 -3.5,-1.1 -7,-1.6 -10.7,-1.6 -4.3,0 -8.1,0.7 -11.3,2 -3.2,1.3 -5.7,3.2 -7.5,5.6 -1.8,2.4 -2.7,5.2 -2.7,8.5 -0.1,3.5 0.8,6.4 2.5,8.6 z"
             id="path4597"
             inkscape:connector-curvature="0"
             style="fill:#f7f7fb" /></g><g
           id="g4599"><polygon
             class="st1"
             points="552.8,243.7 576.9,284.9 576.9,306 583.9,306 583.9,284.6 607.6,243.7 600.3,243.7 580.4,276.2 560.2,243.7 "
             id="polygon4601"
             style="fill:#f7f7fb" /></g><g
           id="g4603"><polygon
             class="st1"
             points="330.1,306 330.1,254.6 352.7,299.4 357,299.4 379.7,254.6 379.8,306 386.4,306 386.4,243.7 377.6,243.7 354.9,288.5 332.2,243.7 323.4,243.7 323.4,306 "
             id="polygon4605"
             style="fill:#f7f7fb" /></g><g
           id="g4607"><path
             class="st0"
             d="m 286.8,251.7 8.6,19.3 -17.1,0 8.5,-19.3 z m 3.9,-8 -7.4,0 -27.9,62.3 7.5,0 12.4,-28.1 23.1,0 12.4,28.1 7.8,0 -27.9,-62.3 z"
             id="path4609"
             inkscape:connector-curvature="0"
             style="clip-rule:evenodd;fill:#f7f7fb;fill-rule:evenodd" /></g><g
           id="g4611"><path
             class="st1"
             d="m 252.2,275.5 -6.3,0 0,18.8 c -2.4,1.7 -5.1,3 -7.9,3.9 -2.8,0.9 -5.7,1.4 -8.5,1.4 -4.8,0 -9.1,-1.1 -13,-3.4 -3.9,-2.2 -6.9,-5.1 -9.2,-8.8 -2.3,-3.7 -3.5,-7.9 -3.5,-12.6 0,-4.6 1.2,-8.8 3.4,-12.5 2.3,-3.7 5.3,-6.6 9.1,-8.8 3.9,-2.2 8.2,-3.3 13,-3.4 3.5,0 6.9,0.6 10.2,1.9 3.3,1.3 6.2,3 8.8,5.3 l 4.1,-5.4 c -3,-2.7 -6.5,-4.8 -10.5,-6.3 -3.9,-1.5 -8.1,-2.3 -12.5,-2.3 -6.2,0.1 -11.7,1.5 -16.6,4.2 -4.9,2.8 -8.9,6.6 -11.8,11.3 -2.9,4.7 -4.4,10 -4.4,15.9 0.1,5.9 1.5,11.2 4.4,16 2.9,4.7 6.8,8.5 11.7,11.3 4.9,2.8 10.4,4.2 16.4,4.3 4.2,0 8.4,-0.8 12.4,-2.3 4,-1.5 7.6,-3.5 10.8,-5.9 l 0,-22.6 z"
             id="path4613"
             inkscape:connector-curvature="0"
             style="fill:#f7f7fb" /></g></g></g></g></svg>